<?xml version="1.0" standalone="no"?>
<!DOCTYPE svg PUBLIC "-//W3C//DTD SVG 20010904//EN"
 "http://www.w3.org/TR/2001/REC-SVG-20010904/DTD/svg10.dtd">
<svg version="1.0" xmlns="http://www.w3.org/2000/svg"
 width="512.000000pt" height="512.000000pt" viewBox="0 0 512.000000 512.000000"
 preserveAspectRatio="xMidYMid meet">

<g transform="translate(0.000000,512.000000) scale(0.100000,-0.100000)"
fill="#000000" stroke="none">
<path d="M1060 4818 c-594 -53 -1060 -814 -1060 -1729 0 -739 318 -1416 771
-1645 l69 -34 0 -260 0 -260 -115 0 -115 0 0 54 c0 64 -16 113 -40 126 -31 17
-65 11 -88 -13 -18 -19 -22 -35 -22 -95 l0 -72 -50 0 -50 0 0 73 c0 64 -3 76
-23 95 -29 27 -67 28 -98 3 -20 -16 -24 -30 -27 -95 l-4 -76 -80 0 c-70 0 -82
-3 -103 -25 l-25 -24 0 -245 c0 -244 0 -245 24 -273 l24 -28 2512 0 2512 0 24
28 c24 28 24 29 24 273 l0 245 -25 24 c-24 25 -26 25 -210 25 l-185 0 0 334
c0 322 -1 334 -21 360 -27 34 -79 36 -109 4 -19 -21 -20 -33 -20 -360 l0 -338
-599 0 -600 0 -28 -24 -28 -24 -3 -196 -4 -196 -54 0 -54 0 0 765 0 766 -25
24 -24 25 -479 0 c-470 0 -480 0 -506 -21 l-26 -20 0 -770 0 -769 -35 0 -35 0
0 179 c0 98 -5 191 -10 208 -12 32 -45 53 -85 53 l-25 0 0 653 0 653 650 619
c357 341 653 620 658 620 5 0 302 -279 660 -620 l651 -620 0 -166 c1 -160 2
-166 24 -187 33 -31 80 -29 106 4 18 22 21 41 21 111 l0 84 44 -35 c69 -58 84
-53 229 69 69 58 128 112 131 121 20 53 18 55 -316 374 l-78 73 0 503 c0 479
-1 503 -19 525 l-19 24 -354 3 c-373 3 -416 0 -436 -40 -7 -13 -13 -65 -14
-116 l-3 -94 -246 234 c-359 341 -344 328 -377 328 -17 0 -44 -12 -64 -28 -20
-15 -233 -216 -474 -446 l-439 -417 -7 103 c-23 350 -93 635 -222 904 -107
222 -268 434 -329 434 -40 0 -63 -15 -75 -47 -12 -37 -4 -57 57 -126 101 -115
194 -271 261 -437 101 -254 146 -482 157 -796 l6 -180 -371 -353 c-203 -194
-373 -362 -375 -373 -9 -34 8 -62 80 -124 194 -172 214 -180 282 -119 21 19
41 35 45 35 3 0 6 -30 6 -67 0 -62 -3 -70 -39 -117 -128 -168 -284 -279 -457
-327 -106 -29 -248 -24 -352 13 -365 130 -651 569 -747 1148 -59 350 -34 763
66 1090 141 464 419 793 739 875 98 25 240 17 353 -20 81 -27 90 -28 114 -15
34 19 49 63 34 97 -29 63 -256 117 -431 101z m3020 -1784 c459 -437 836 -798
837 -802 2 -7 -78 -74 -95 -80 -5 -1 -328 303 -719 675 -390 373 -737 704
-771 736 -104 98 -16 165 -896 -675 -422 -403 -773 -734 -779 -735 -7 -1 -32
15 -57 37 l-45 40 70 69 c156 154 1608 1531 1614 1531 3 0 382 -358 841 -796z
m480 129 l0 -377 -62 60 c-35 33 -156 149 -270 258 l-208 198 0 119 0 119 270
0 270 0 0 -377z m-1530 -1998 l0 -715 -380 0 -380 0 0 715 0 715 380 0 380 0
0 -715z m-1250 105 l0 -380 -50 0 -50 0 0 54 c0 93 -26 136 -82 136 -51 -1
-78 -47 -78 -136 l0 -54 -45 0 -45 0 0 263 0 263 63 31 c66 33 206 133 246
177 14 14 28 26 33 26 4 0 8 -171 8 -380z m-650 89 c55 0 109 3 120 6 20 6 20
2 20 -234 l0 -241 -140 0 -140 0 0 241 c0 236 0 240 20 234 11 -3 65 -6 120
-6z m768 -766 l3 -143 -876 0 -875 0 0 145 0 145 873 -2 872 -3 3 -142z m3072
2 l0 -145 -760 0 -760 0 0 145 0 145 760 0 760 0 0 -145z"/>
<path d="M2740 1220 c-30 -30 -27 -83 7 -110 25 -19 38 -21 121 -18 84 3 96 5
113 27 26 32 24 73 -4 99 -21 19 -34 22 -120 22 -84 0 -100 -3 -117 -20z"/>
<path d="M3150 2977 c-234 -66 -317 -355 -154 -536 67 -74 138 -106 239 -106
71 0 88 4 147 33 118 58 181 161 181 292 0 86 -22 147 -78 216 -72 87 -223
133 -335 101z m190 -176 c50 -40 72 -83 72 -140 0 -58 -20 -100 -68 -139 -87
-72 -218 -41 -265 62 -10 23 -19 57 -19 76 0 42 29 108 58 133 60 53 161 57
222 8z"/>
<path d="M3323 2006 l-28 -24 0 -486 0 -485 23 -23 23 -23 549 0 549 0 23 23
23 23 3 467 c1 257 0 477 -3 489 -3 12 -15 32 -27 43 -21 20 -33 20 -564 20
l-543 0 -28 -24z m1012 -191 l0 -60 -442 -3 -443 -2 0 65 0 65 443 -2 442 -3
0 -60z m5 -455 l0 -240 -445 0 -445 0 0 240 0 240 445 0 445 0 0 -240z"/>
</g>
</svg>
